<svg width="40" height="40" viewBox="0 0 40 40" fill="none" xmlns="http://www.w3.org/2000/svg">
<rect width="40" height="40" rx="20" fill="#1F2024"/>
<mask id="mask0_295_5765" style="mask-type:alpha" maskUnits="userSpaceOnUse" x="15" y="14" width="10" height="12">
<path d="M22.3864 14.006C22.3609 13.9775 21.4422 14.0173 20.6427 14.885C19.8432 15.752 19.9662 16.7465 19.9842 16.772C20.0022 16.7975 21.1242 16.8373 21.8404 15.8285C22.5567 14.8198 22.4119 14.0353 22.3864 14.006ZM24.8719 22.8058C24.8359 22.7338 23.1282 21.8803 23.2872 20.2393C23.4462 18.5975 24.5434 18.1475 24.5607 18.0988C24.5779 18.05 24.1129 17.5063 23.6202 17.231C23.2584 17.0369 22.858 16.9258 22.4479 16.9055C22.3669 16.9033 22.0857 16.8343 21.5074 16.9925C21.1264 17.0968 20.2677 17.4343 20.0314 17.4478C19.7944 17.4613 19.0894 17.0563 18.3312 16.949C17.8459 16.8553 17.3314 17.0473 16.9632 17.195C16.5957 17.342 15.8967 17.7605 15.4077 18.8728C14.9187 19.9843 15.1744 21.7453 15.3574 22.2928C15.5404 22.8395 15.8262 23.7358 16.3122 24.3898C16.7442 25.1278 17.3172 25.64 17.5564 25.814C17.7957 25.988 18.4707 26.1035 18.9387 25.8643C19.3152 25.6333 19.9947 25.5005 20.2632 25.5103C20.5309 25.52 21.0589 25.6258 21.5997 25.9145C22.0279 26.0623 22.4329 26.0008 22.8387 25.8358C23.2444 25.67 23.8317 25.0415 24.5172 23.7673C24.7774 23.1748 24.8959 22.8545 24.8719 22.8058Z" fill="white"/>
<path d="M22.3864 14.006C22.3609 13.9775 21.4422 14.0173 20.6427 14.885C19.8432 15.752 19.9662 16.7465 19.9842 16.772C20.0022 16.7975 21.1242 16.8373 21.8404 15.8285C22.5567 14.8198 22.4119 14.0353 22.3864 14.006ZM24.8719 22.8058C24.8359 22.7338 23.1282 21.8803 23.2872 20.2393C23.4462 18.5975 24.5434 18.1475 24.5607 18.0988C24.5779 18.05 24.1129 17.5063 23.6202 17.231C23.2584 17.0369 22.858 16.9258 22.4479 16.9055C22.3669 16.9033 22.0857 16.8343 21.5074 16.9925C21.1264 17.0968 20.2677 17.4343 20.0314 17.4478C19.7944 17.4613 19.0894 17.0563 18.3312 16.949C17.8459 16.8553 17.3314 17.0473 16.9632 17.195C16.5957 17.342 15.8967 17.7605 15.4077 18.8728C14.9187 19.9843 15.1744 21.7453 15.3574 22.2928C15.5404 22.8395 15.8262 23.7358 16.3122 24.3898C16.7442 25.1278 17.3172 25.64 17.5564 25.814C17.7957 25.988 18.4707 26.1035 18.9387 25.8643C19.3152 25.6333 19.9947 25.5005 20.2632 25.5103C20.5309 25.52 21.0589 25.6258 21.5997 25.9145C22.0279 26.0623 22.4329 26.0008 22.8387 25.8358C23.2444 25.67 23.8317 25.0415 24.5172 23.7673C24.7774 23.1748 24.8959 22.8545 24.8719 22.8058Z" fill="white"/>
</mask>
<g mask="url(#mask0_295_5765)">
<rect x="14.001" y="14" width="12" height="12" fill="white"/>
</g>
</svg>
