<svg width="40" height="40" viewBox="0 0 40 40" fill="none" xmlns="http://www.w3.org/2000/svg">
<rect width="40" height="40" rx="20" fill="#ED3241"/>
<mask id="mask0_295_5764" style="mask-type:alpha" maskUnits="userSpaceOnUse" x="14" y="14" width="12" height="12">
<path d="M25.2835 18.9686C25.3522 19.3368 25.3897 19.7218 25.3897 20.1235C25.3897 23.2657 23.2867 25.5 20.1104 25.5C19.388 25.5002 18.6727 25.3581 18.0053 25.0818C17.3379 24.8055 16.7315 24.4003 16.2208 23.8896C15.71 23.3788 15.3049 22.7724 15.0286 22.105C14.7522 21.4376 14.6101 20.7223 14.6104 20C14.6101 19.2777 14.7522 18.5624 15.0286 17.895C15.3049 17.2276 15.71 16.6212 16.2208 16.1104C16.7315 15.5997 17.3379 15.1945 18.0053 14.9182C18.6727 14.6419 19.388 14.4998 20.1104 14.5C21.5954 14.5 22.8363 15.0464 23.7884 15.9337L22.2379 17.4841V17.4802C21.6608 16.9304 20.9283 16.6483 20.1104 16.6483C18.2956 16.6483 16.8206 18.1814 16.8206 19.9966C16.8206 21.8114 18.2956 23.3478 20.1104 23.3478C21.7569 23.3478 22.8777 22.4064 23.1079 21.1135H20.1104V18.9686H25.2841H25.2835Z" fill="white"/>
</mask>
<g mask="url(#mask0_295_5764)">
<rect x="14.001" y="14" width="12" height="12" fill="white"/>
</g>
</svg>
