<svg width="20" height="20" viewBox="0 0 20 20" fill="none" xmlns="http://www.w3.org/2000/svg">
<mask id="mask0_487_595" style="mask-type:alpha" maskUnits="userSpaceOnUse" x="0" y="0" width="20" height="20">
<path fill-rule="evenodd" clip-rule="evenodd" d="M3.33333 4.37486C2.98816 4.37486 2.70833 4.65468 2.70833 4.99985V16.6663C2.70833 17.0115 2.98816 17.2913 3.33333 17.2913H15C15.3452 17.2913 15.625 17.0115 15.625 16.6663V10.8331C15.625 10.2578 16.0914 9.79144 16.6667 9.79144C17.242 9.79144 17.7083 10.2578 17.7083 10.8331V16.6663C17.7083 18.1621 16.4958 19.3746 15 19.3746H3.33333C1.83756 19.3746 0.625 18.1621 0.625 16.6663V4.99985C0.625 3.5041 1.83756 2.29156 3.33333 2.29156H9.16667C9.74196 2.29156 10.2083 2.75792 10.2083 3.33321C10.2083 3.9085 9.74196 4.37486 9.16667 4.37486H3.33333Z" fill="#006FFD"/>
<path d="M10.9122 11.9171L16.8688 5.96065L14.0395 3.13146L8.083 9.08788C8.001 9.16999 7.94275 9.27275 7.91443 9.38529L7.25423 12.7458L10.6142 12.0856C10.727 12.0574 10.8302 11.9991 10.9122 11.9171ZM18.7917 4.03777C19.032 3.79738 19.167 3.47137 19.167 3.13146C19.167 2.79154 19.032 2.46553 18.7917 2.22514L17.7751 1.20858C17.5347 0.968258 17.2087 0.833252 16.8688 0.833252C16.5288 0.833252 16.2028 0.968258 15.9624 1.20858L14.9459 2.22514L17.7751 5.05433L18.7917 4.03777Z" fill="#006FFD"/>
</mask>
<g mask="url(#mask0_487_595)">
<rect width="20" height="19.9997" fill="#006FFD"/>
</g>
</svg>
