<svg
    width="20"
    height="20"
    viewBox="0 0 20 20"
    fill="none"
    xmlns="http://www.w3.org/2000/svg">

    <path
        d="M10.0001 0.833344C15.0622 0.833344 19.1656 4.93676 19.1656 9.99889C19.1656 15.061 15.0622 19.1644 10.0001 19.1644C8.51731 19.1664 7.05637 18.8071 5.74361 18.1177L1.81159 19.1415C1.68021 19.1757 1.54216 19.175 1.41114 19.1395C1.28011 19.1039 1.16066 19.0347 1.06461 18.9388C0.968564 18.8428 0.899259 18.7234 0.863566 18.5924C0.827873 18.4614 0.827031 18.3234 0.861122 18.192L1.884 14.2609C1.19273 12.9467 0.832499 11.4838 0.834542 9.99889C0.834542 4.93676 4.93796 0.833344 10.0001 0.833344Z"
        fill="#D4D6DD"/>
</svg>
