<svg
    width="20"
    height="20"
    viewBox="0 0 20 20"
    xmlns="http://www.w3.org/2000/svg">

    <path
        d="M19.7526 8.48003L17.5171 7.81337C17.3626 7.27424 17.15 6.75343 16.8832 6.26004L17.9776 4.21338C18.0186 4.13613 18.0337 4.04771 18.0204 3.96124C18.0072 3.87477 17.9664 3.79487 17.9042 3.73339L16.3093 2.13339C16.2477 2.07117 16.1677 2.03044 16.0812 2.01722C15.9946 2.00401 15.9061 2.01904 15.8288 2.06006L13.7935 3.14672C13.2947 2.86716 12.7666 2.64358 12.2186 2.48006L11.5513 0.273404C11.5231 0.192081 11.4697 0.121804 11.399 0.0726857C11.3282 0.0235679 11.2437 -0.00185667 11.1576 7.15944e-05H8.90203C8.81537 0.000474641 8.73111 0.0284945 8.6615 0.0800533C8.59188 0.131612 8.54056 0.204019 8.51499 0.286737L7.84767 2.48673C7.29514 2.64938 6.76245 2.87298 6.25945 3.15339L4.25749 2.07339C4.18016 2.03237 4.09165 2.01735 4.0051 2.03056C3.91855 2.04377 3.83856 2.08451 3.77702 2.14673L2.15544 3.72672C2.09316 3.7882 2.05238 3.8681 2.03916 3.95457C2.02593 4.04104 2.04097 4.12946 2.08203 4.20672L3.16309 6.20671C2.88285 6.7071 2.65905 7.237 2.49577 7.7867L0.286947 8.45336C0.204148 8.47891 0.13167 8.53018 0.0800604 8.59973C0.0284508 8.66927 0.000403443 8.75346 0 8.84003V11.0933C0.000403443 11.1799 0.0284508 11.2641 0.0800604 11.3336C0.13167 11.4032 0.204148 11.4545 0.286947 11.48L2.50912 12.1467C2.67418 12.6872 2.89795 13.2081 3.17644 13.7L2.08203 15.7933C2.04097 15.8706 2.02593 15.959 2.03916 16.0455C2.05238 16.1319 2.09316 16.2118 2.15544 16.2733L3.75033 17.8666C3.81187 17.9289 3.89185 17.9696 3.97841 17.9828C4.06496 17.996 4.15347 17.981 4.2308 17.94L6.29282 16.84C6.7806 17.1029 7.29514 17.313 7.82765 17.4666L8.49497 19.7133C8.52054 19.796 8.57186 19.8684 8.64148 19.92C8.71109 19.9715 8.79536 19.9996 8.88201 20H11.1376C11.2242 19.9996 11.3085 19.9715 11.3781 19.92C11.4477 19.8684 11.499 19.796 11.5246 19.7133L12.1919 17.46C12.7199 17.3056 13.2299 17.0955 13.7134 16.8333L15.7888 17.94C15.8661 17.981 15.9546 17.996 16.0412 17.9828C16.1277 17.9696 16.2077 17.9289 16.2692 17.8666L17.8641 16.2733C17.9264 16.2118 17.9672 16.1319 17.9804 16.0455C17.9936 15.959 17.9786 15.8706 17.9375 15.7933L16.8298 13.7267C17.0949 13.2418 17.3075 12.73 17.4637 12.2L19.7126 11.5333C19.7954 11.5078 19.8679 11.4565 19.9195 11.387C19.9711 11.3174 19.9991 11.2333 19.9995 11.1467V8.87336C20.0035 8.79046 19.9819 8.70834 19.9378 8.63803C19.8937 8.56772 19.829 8.51259 19.7526 8.48003ZM10 13.6667C8.15905 13.6667 6.66667 12.1743 6.66667 10.3333C6.66667 8.49238 8.15905 7 10 7C11.8409 7 13.3333 8.49238 13.3333 10.3333C13.3333 12.1743 11.8409 13.6667 10 13.6667Z"
        fill="#D4D6DD"/>

</svg>
