<svg width="20" height="20" viewBox="0 0 20 20" fill="none" xmlns="http://www.w3.org/2000/svg"> <mask id="mask0_2360_395" style="mask-type:alpha" maskUnits="userSpaceOnUse" x="1" y="0" width="18" height="20"> <path d="M14.9998 4.99988C14.9998 7.76124 12.7614 9.99977 10 9.99977C7.23873 9.99977 5.00024 7.76124 5.00024 4.99988C5.00024 2.23852 7.23873 0 10 0C12.7614 0 14.9998 2.23852 14.9998 4.99988Z" fill="#0070FF"/> <path d="M1.66699 16.6667C1.66699 13.9054 3.90548 11.6669 6.6668 11.6669H13.3332C16.0945 11.6669 18.333 13.9054 18.333 16.6667V17.5001C18.333 18.8807 17.2138 20 15.8331 20H4.16689C2.78624 20 1.66699 18.8807 1.66699 17.5001V16.6667Z" fill="#0070FF"/> </mask> <g mask="url(#mask0_2360_395)"> <rect x="0.000488281" y="-0.00109863" width="19.9992" height="19.9995" fill="#D4D6DD"/> </g> </svg>